<svg width="35" height="35" viewBox="0 0 35 35" fill="none" xmlns="http://www.w3.org/2000/svg">
<g clip-path="url(#clip0_66_5947)">
<path d="M34.8884 17.4371C34.8884 27.0673 27.0814 34.8741 17.4512 34.8741C7.82101 34.8741 0.0141602 27.0673 0.0141602 17.4371C0.0141602 7.80683 7.82101 0 17.4512 0C27.0814 0 34.8884 7.80683 34.8884 17.4371Z" fill="#22253B"/>
<path d="M21.4009 8.68628H13.2122C10.5471 8.68628 8.37891 10.8544 8.37891 13.5195V21.7084C8.37891 24.3734 10.5471 26.5416 13.2122 26.5416H21.4011C24.0659 26.5416 26.2341 24.3734 26.2341 21.7084V13.5195C26.2341 10.8544 24.0659 8.68628 21.4009 8.68628ZM17.3065 22.4961C14.6145 22.4961 12.4244 20.306 12.4244 17.6139C12.4244 14.9218 14.6145 12.7317 17.3065 12.7317C19.9986 12.7317 22.1888 14.9218 22.1888 17.6139C22.1888 20.306 19.9986 22.4961 17.3065 22.4961ZM22.3054 13.8831C21.5099 13.8831 20.8628 13.236 20.8628 12.4405C20.8628 11.6449 21.5099 10.9977 22.3054 10.9977C23.101 10.9977 23.7481 11.6449 23.7481 12.4405C23.7481 13.236 23.101 13.8831 22.3054 13.8831Z" fill="white"/>
<path d="M17.3066 13.7786C15.1918 13.7786 13.4712 15.4991 13.4712 17.614C13.4712 19.7287 15.1918 21.4494 17.3066 21.4494C19.4215 21.4494 21.1419 19.7287 21.1419 17.614C21.1419 15.4991 19.4215 13.7786 17.3066 13.7786Z" fill="white"/>
<path d="M22.3055 12.0444C22.0873 12.0444 21.9097 12.2221 21.9097 12.4403C21.9097 12.6585 22.0873 12.8362 22.3055 12.8362C22.5238 12.8362 22.7016 12.6587 22.7016 12.4403C22.7016 12.2219 22.5238 12.0444 22.3055 12.0444Z" fill="white"/>
</g>
<defs>
<clipPath id="clip0_66_5947">
<rect width="35" height="35" fill="white"/>
</clipPath>
</defs>
</svg>
