<svg width="35" height="35" viewBox="0 0 35 35" fill="none" xmlns="http://www.w3.org/2000/svg">
<g clip-path="url(#clip0_66_5954)">
<path d="M34.8741 17.4371C34.8741 27.0673 27.0673 34.8741 17.4371 34.8741C7.80683 34.8741 0 27.0673 0 17.4371C0 7.80683 7.80683 0 17.4371 0C27.0673 0 34.8741 7.80683 34.8741 17.4371Z" fill="#22253B"/>
<path fill-rule="evenodd" clip-rule="evenodd" d="M16.8496 22.9577H17.9649C17.9649 22.9577 18.3018 22.9209 18.4738 22.7358C18.6322 22.566 18.6271 22.2472 18.6271 22.2472C18.6271 22.2472 18.6053 20.7547 19.2999 20.5348C19.9846 20.3184 20.8639 21.9775 21.7959 22.6153C22.5005 23.0981 23.036 22.9923 23.036 22.9923L25.528 22.9577C25.528 22.9577 26.8314 22.8776 26.2133 21.8554C26.1628 21.7717 25.8535 21.0992 24.3607 19.7173C22.7982 18.2709 23.0074 18.5049 24.8896 16.003C26.0359 14.4793 26.4941 13.549 26.3509 13.1506C26.2143 12.7712 25.3713 12.8715 25.3713 12.8715L22.5657 12.8889C22.5657 12.8889 22.3577 12.8606 22.2034 12.9526C22.0527 13.0428 21.9556 13.253 21.9556 13.253C21.9556 13.253 21.5116 14.432 20.9193 15.4348C19.67 17.5506 19.1705 17.6623 18.9663 17.5309C18.4913 17.2247 18.6099 16.3008 18.6099 15.6445C18.6099 13.594 18.9217 12.7391 18.0027 12.5178C17.6977 12.4443 17.4733 12.3958 16.6933 12.3879C15.6922 12.3776 14.8448 12.3909 14.365 12.6254C14.0459 12.7813 13.7997 13.1287 13.9496 13.1486C14.1351 13.1734 14.555 13.2615 14.7777 13.564C15.0652 13.954 15.0551 14.8302 15.0551 14.8302C15.0551 14.8302 15.2203 17.2439 14.6693 17.5438C14.2911 17.7495 13.7723 17.3296 12.6585 15.41C12.0878 14.4267 11.6569 13.3399 11.6569 13.3399C11.6569 13.3399 11.5738 13.1367 11.4256 13.0281C11.2457 12.8965 10.9944 12.8545 10.9944 12.8545L8.32829 12.872C8.32829 12.872 7.92805 12.8831 7.78113 13.0567C7.65042 13.211 7.77075 13.5304 7.77075 13.5304C7.77075 13.5304 9.85805 18.4008 12.2215 20.8553C14.3886 23.1055 16.8496 22.9577 16.8496 22.9577Z" fill="white"/>
</g>
<defs>
<clipPath id="clip0_66_5954">
<rect width="35" height="35" fill="white"/>
</clipPath>
</defs>
</svg>
