<svg width="51" height="51" viewBox="0 0 51 51" fill="none" xmlns="http://www.w3.org/2000/svg">
<path d="M50.4676 2.65646V9.50421H0.531738V2.65646C0.531738 1.48286 1.48311 0.531494 2.65671 0.531494H48.3426C49.5162 0.531494 50.4676 1.48286 50.4676 2.65646Z" fill="#38BFF2"/>
<path d="M50.4687 9.50427V48.3435C50.4687 49.5174 49.5178 50.4684 48.3437 50.4684H2.65671C1.48261 50.4684 0.531738 49.5174 0.531738 48.3435V9.50427H50.4687Z" fill="white"/>
<path d="M46.75 24.1031V14.2853C46.75 13.6985 46.2743 13.2228 45.6875 13.2228H5.31302C4.72622 13.2228 4.25049 13.6985 4.25049 14.2853V24.1031C4.25049 24.6899 4.72622 25.1656 5.31302 25.1656H45.6876C46.2743 25.1655 46.75 24.6898 46.75 24.1031Z" fill="#38BFF2"/>
<path d="M23.6622 5.01786C23.6622 5.71472 23.0973 6.27961 22.4005 6.27961H4.98099C4.28412 6.27961 3.71924 5.71472 3.71924 5.01786C3.71924 4.32099 4.28412 3.7561 4.98099 3.7561H22.4005C23.0973 3.7561 23.6622 4.32099 23.6622 5.01786Z" fill="white"/>
<path d="M45.9814 6.31661C46.6987 6.31661 47.2802 5.73511 47.2802 5.0178C47.2802 4.30049 46.6987 3.71899 45.9814 3.71899C45.2641 3.71899 44.6826 4.30049 44.6826 5.0178C44.6826 5.73511 45.2641 6.31661 45.9814 6.31661Z" fill="white"/>
<path d="M40.7617 6.31661C41.479 6.31661 42.0605 5.73511 42.0605 5.0178C42.0605 4.30049 41.479 3.71899 40.7617 3.71899C40.0444 3.71899 39.4629 4.30049 39.4629 5.0178C39.4629 5.73511 40.0444 6.31661 40.7617 6.31661Z" fill="white"/>
<path d="M35.5425 6.31661C36.2598 6.31661 36.8413 5.73511 36.8413 5.0178C36.8413 4.30049 36.2598 3.71899 35.5425 3.71899C34.8251 3.71899 34.2437 4.30049 34.2437 5.0178C34.2437 5.73511 34.8251 6.31661 35.5425 6.31661Z" fill="white"/>
<path d="M31.3437 36.7681V29.9466C31.3437 29.3598 30.868 28.884 30.2812 28.884H20.7188C20.132 28.884 19.6562 29.3598 19.6562 29.9466V36.7681C19.6562 37.3549 20.132 37.8306 20.7188 37.8306H30.2812C30.868 37.8305 31.3437 37.3549 31.3437 36.7681Z" fill="#38BFF2"/>
<path d="M15.9379 36.7681V29.9466C15.9379 29.3598 15.4621 28.884 14.8753 28.884H5.31302C4.72622 28.884 4.25049 29.3598 4.25049 29.9466V36.7681C4.25049 37.3549 4.72622 37.8306 5.31302 37.8306H14.8754C15.4622 37.8305 15.9379 37.3549 15.9379 36.7681Z" fill="#38BFF2"/>
<path d="M46.75 36.7681V29.9466C46.75 29.3598 46.2742 28.884 45.6874 28.884H36.125C35.5382 28.884 35.0625 29.3598 35.0625 29.9466V36.7681C35.0625 37.3549 35.5382 37.8306 36.125 37.8306H45.6874C46.2742 37.8305 46.75 37.3549 46.75 36.7681Z" fill="#38BFF2"/>
<path d="M50.9989 2.65655C50.9989 1.19199 49.8073 0.000366211 48.3427 0.000366211H2.65667C1.19212 0.000366211 0.000488281 1.19199 0.000488281 2.65655V48.3435C0.000488281 49.808 1.19212 50.9997 2.65667 50.9997H48.3436C49.8082 50.9997 50.9998 49.808 50.9998 48.3435C50.9999 47.847 50.999 8.5076 50.9989 2.65655ZM1.06302 2.65655C1.06302 1.7777 1.77792 1.0628 2.65677 1.0628H48.3426C49.2215 1.0628 49.9364 1.7777 49.9364 2.65655V8.97288H1.06302V2.65655ZM48.3437 49.9373H2.65667C1.77782 49.9373 1.06292 49.2224 1.06292 48.3436V10.0354H49.9374V48.3436C49.9375 49.2224 49.2226 49.9373 48.3437 49.9373Z" fill="#1A2E35"/>
<path d="M45.6875 12.6915H5.31299C4.43413 12.6915 3.71924 13.4064 3.71924 14.2853V24.1029C3.71924 24.9817 4.43413 25.6966 5.31299 25.6966H45.6876C46.5664 25.6966 47.2813 24.9817 47.2813 24.1029V14.2853C47.2812 13.4064 46.5663 12.6915 45.6875 12.6915ZM46.2188 24.1029C46.2188 24.396 45.9806 24.6341 45.6876 24.6341H5.31299C5.01984 24.6341 4.78177 24.3959 4.78177 24.1029V14.2853C4.78177 13.9921 5.01994 13.7541 5.31299 13.7541H45.6876C45.9807 13.7541 46.2188 13.9922 46.2188 14.2853V24.1029Z" fill="#1A2E35"/>
<path d="M22.4005 3.2251H4.98096C3.99213 3.2251 3.18799 4.02924 3.18799 5.01807C3.18799 6.00689 3.99213 6.81104 4.98096 6.81104H22.4004C23.3893 6.81104 24.1934 6.00689 24.1934 5.01807C24.1934 4.02924 23.3894 3.2251 22.4005 3.2251ZM22.4005 5.7485H4.98096C4.57834 5.7485 4.25052 5.42059 4.25052 5.01807C4.25052 4.61555 4.57844 4.28763 4.98096 4.28763H22.4004C22.8031 4.28763 23.1309 4.61555 23.1309 5.01807C23.1309 5.42059 22.8031 5.7485 22.4005 5.7485Z" fill="#1A2E35"/>
<path d="M45.9812 3.18774C44.9722 3.18774 44.1514 4.00902 44.1514 5.01807C44.1514 6.02711 44.9722 6.84789 45.9812 6.84789C46.9902 6.84789 47.8115 6.02721 47.8115 5.01807C47.8115 4.00892 46.9902 3.18774 45.9812 3.18774ZM45.9812 5.78526C45.5579 5.78526 45.2139 5.44131 45.2139 5.01797C45.2139 4.59463 45.5579 4.25018 45.9812 4.25018C46.4045 4.25018 46.749 4.59463 46.749 5.01797C46.749 5.44131 46.4045 5.78526 45.9812 5.78526Z" fill="#1A2E35"/>
<path d="M40.762 3.18774C39.7529 3.18774 38.9316 4.00902 38.9316 5.01807C38.9316 6.02711 39.7529 6.84789 40.762 6.84789C41.771 6.84789 42.5918 6.02721 42.5918 5.01807C42.5918 4.00892 41.771 3.18774 40.762 3.18774ZM40.762 5.78526C40.3386 5.78526 39.9942 5.44131 39.9942 5.01797C39.9942 4.59463 40.3386 4.25018 40.762 4.25018C41.1853 4.25018 41.5293 4.59463 41.5293 5.01797C41.5293 5.44131 41.1853 5.78526 40.762 5.78526Z" fill="#1A2E35"/>
<path d="M35.5422 3.18774C34.5332 3.18774 33.7119 4.00902 33.7119 5.01807C33.7119 6.02711 34.5332 6.84789 35.5422 6.84789C36.5513 6.84789 37.3721 6.02721 37.3721 5.01807C37.3721 4.00892 36.5513 3.18774 35.5422 3.18774ZM35.5422 5.78526C35.1189 5.78526 34.7744 5.44131 34.7744 5.01797C34.7744 4.59463 35.1189 4.25018 35.5422 4.25018C35.9656 4.25018 36.3095 4.59463 36.3095 5.01797C36.3095 5.44131 35.9655 5.78526 35.5422 5.78526Z" fill="#1A2E35"/>
<path d="M15.9378 41.0176H4.25046C3.95681 41.0176 3.71924 41.2551 3.71924 41.5488C3.71924 41.8424 3.95681 42.08 4.25046 42.08H15.9378C16.2315 42.08 16.469 41.8424 16.469 41.5488C16.469 41.2551 16.2315 41.0176 15.9378 41.0176Z" fill="#1A2E35"/>
<path d="M15.9378 46.2185H4.25046C3.95681 46.2185 3.71924 46.4561 3.71924 46.7497C3.71924 47.0434 3.95681 47.2809 4.25046 47.2809H15.9378C16.2315 47.2809 16.469 47.0434 16.469 46.7497C16.469 46.4561 16.2315 46.2185 15.9378 46.2185Z" fill="#1A2E35"/>
<path d="M15.9378 43.6184H4.25046C3.95681 43.6184 3.71924 43.856 3.71924 44.1496C3.71924 44.4433 3.95681 44.6808 4.25046 44.6808H15.9378C16.2315 44.6808 16.469 44.4433 16.469 44.1496C16.469 43.856 16.2315 43.6184 15.9378 43.6184Z" fill="#1A2E35"/>
<path d="M31.3436 41.0176H19.6562C19.3626 41.0176 19.125 41.2551 19.125 41.5488C19.125 41.8424 19.3626 42.08 19.6562 42.08H31.3436C31.6372 42.08 31.8748 41.8424 31.8748 41.5488C31.8748 41.2551 31.6372 41.0176 31.3436 41.0176Z" fill="#1A2E35"/>
<path d="M31.3436 46.2185H19.6562C19.3626 46.2185 19.125 46.4561 19.125 46.7497C19.125 47.0434 19.3626 47.2809 19.6562 47.2809H31.3436C31.6372 47.2809 31.8748 47.0434 31.8748 46.7497C31.8748 46.4561 31.6372 46.2185 31.3436 46.2185Z" fill="#1A2E35"/>
<path d="M31.3436 43.6184H19.6562C19.3626 43.6184 19.125 43.856 19.125 44.1496C19.125 44.4433 19.3626 44.6808 19.6562 44.6808H31.3436C31.6372 44.6808 31.8748 44.4433 31.8748 44.1496C31.8748 43.856 31.6372 43.6184 31.3436 43.6184Z" fill="#1A2E35"/>
<path d="M46.7498 41.0176H35.0625C34.7688 41.0176 34.5312 41.2551 34.5312 41.5488C34.5312 41.8424 34.7688 42.08 35.0625 42.08H46.7498C47.0435 42.08 47.2811 41.8424 47.2811 41.5488C47.2811 41.2551 47.0435 41.0176 46.7498 41.0176Z" fill="#1A2E35"/>
<path d="M46.7498 46.2185H35.0625C34.7688 46.2185 34.5312 46.4561 34.5312 46.7497C34.5312 47.0434 34.7688 47.2809 35.0625 47.2809H46.7498C47.0435 47.2809 47.2811 47.0434 47.2811 46.7497C47.2811 46.4561 47.0435 46.2185 46.7498 46.2185Z" fill="#1A2E35"/>
<path d="M46.7498 43.6184H35.0625C34.7688 43.6184 34.5312 43.856 34.5312 44.1496C34.5312 44.4433 34.7688 44.6808 35.0625 44.6808H46.7498C47.0435 44.6808 47.2811 44.4433 47.2811 44.1496C47.2811 43.856 47.0435 43.6184 46.7498 43.6184Z" fill="#1A2E35"/>
<path d="M30.2811 28.3528H20.7187C19.8399 28.3528 19.125 29.0677 19.125 29.9465V36.7682C19.125 37.647 19.8399 38.3619 20.7187 38.3619H30.2811C31.16 38.3619 31.8749 37.647 31.8749 36.7682V29.9465C31.8749 29.0677 31.16 28.3528 30.2811 28.3528ZM30.8125 36.7682C30.8125 37.0613 30.5743 37.2994 30.2812 37.2994H20.7188C20.4257 37.2994 20.1876 37.0612 20.1876 36.7682V29.9465C20.1876 29.6534 20.4258 29.4153 20.7188 29.4153H30.2812C30.5744 29.4153 30.8125 29.6535 30.8125 29.9465V36.7682Z" fill="#1A2E35"/>
<path d="M14.8754 28.3528H5.31299C4.43413 28.3528 3.71924 29.0677 3.71924 29.9465V36.7682C3.71924 37.647 4.43413 38.3619 5.31299 38.3619H14.8754C15.7542 38.3619 16.4691 37.647 16.4691 36.7682V29.9465C16.469 29.0677 15.7541 28.3528 14.8754 28.3528ZM15.4066 36.7682C15.4066 37.0613 15.1684 37.2994 14.8754 37.2994H5.31299C5.01984 37.2994 4.78177 37.0612 4.78177 36.7682V29.9465C4.78177 29.6534 5.01994 29.4153 5.31299 29.4153H14.8754C15.1685 29.4153 15.4066 29.6535 15.4066 29.9465V36.7682Z" fill="#1A2E35"/>
<path d="M45.6874 28.3528H36.125C35.2461 28.3528 34.5312 29.0677 34.5312 29.9465V36.7682C34.5312 37.647 35.2461 38.3619 36.125 38.3619H45.6874C46.5663 38.3619 47.2812 37.647 47.2812 36.7682V29.9465C47.2812 29.0677 46.5663 28.3528 45.6874 28.3528ZM46.2187 36.7682C46.2187 37.0613 45.9806 37.2994 45.6875 37.2994H36.1251C35.8319 37.2994 35.5939 37.0612 35.5939 36.7682V29.9465C35.5939 29.6534 35.832 29.4153 36.1251 29.4153H45.6875C45.9807 29.4153 46.2187 29.6535 46.2187 29.9465V36.7682Z" fill="#1A2E35"/>
</svg>
