<svg width="75" height="67" viewBox="0 0 75 67" fill="none" xmlns="http://www.w3.org/2000/svg">
<path d="M73.8401 32.9035C73.8401 38.6504 69.1893 43.3013 63.4424 43.3013V22.4763C69.1894 22.4762 73.8401 27.1418 73.8401 32.9035Z" fill="white"/>
<path d="M60.8163 1.08484C59.3658 1.08484 58.1899 2.26067 58.1899 3.71116V62.0661C58.1899 63.5166 59.3658 64.6924 60.8163 64.6924C62.2668 64.6924 63.4426 63.5166 63.4426 62.0661V3.71116C63.4426 2.26067 62.2668 1.08484 60.8163 1.08484Z" fill="white"/>
<path d="M58.1926 5.60498V60.1723C52.3497 49.5768 38.1842 43.3704 26.6978 42.8004V22.9771C38.1842 22.407 52.3497 16.2008 58.1926 5.60498Z" fill="#38BFF2"/>
<path d="M26.6945 22.9742V42.8055C26.6945 43.9808 25.7417 44.9335 24.5665 44.9335H8.07427C6.89902 44.9335 5.94629 43.9808 5.94629 42.8055V22.9742C5.94629 21.7989 6.89902 20.8462 8.07427 20.8462H24.5665C25.7417 20.846 26.6945 21.7989 26.6945 22.9742Z" fill="white"/>
<path d="M3.11582 25.5437H5.94604V40.2356H3.11582C2.03374 40.2356 1.15967 39.3617 1.15967 38.2795V27.4999C1.15981 26.4178 2.03374 25.5437 3.11582 25.5437Z" fill="#38BFF2"/>
<path d="M21.023 18.7839V20.8429H11.6211V18.7839C11.6211 17.6558 12.5356 16.7415 13.6635 16.7415H18.9808C20.1087 16.7415 21.023 17.6558 21.023 18.7839Z" fill="white"/>
<path d="M15.157 64.9089L21.2967 44.9336H11.3433V64.4903C11.3433 65.2773 11.9813 65.9154 12.7684 65.9154H13.7948C14.4205 65.9153 14.973 65.5072 15.157 64.9089Z" fill="#38BFF2"/>
<path d="M74.6136 32.9036C74.6136 26.9894 70.0146 22.1433 64.2163 21.742V3.71084C64.2163 1.83672 62.6911 0.311523 60.8162 0.311523C58.9421 0.311523 57.4169 1.83672 57.4169 3.71084V5.4001C51.7279 15.5071 38.1557 21.4136 27.3371 22.1611C26.9827 20.9591 25.8816 20.0733 24.5665 20.0733H21.7969V18.7836C21.7969 17.2312 20.5336 15.9679 18.9812 15.9679H13.6639C12.1115 15.9679 10.8482 17.2312 10.8482 18.7836V20.0733H8.07422C6.4749 20.0733 5.17324 21.3751 5.17324 22.9743V24.7706H3.11631C1.61147 24.7706 0.386719 25.9954 0.386719 27.5002V38.2797C0.386719 39.7845 1.61147 41.0085 3.11631 41.0085H5.1731V42.8056C5.1731 44.4049 6.4749 45.7066 8.07407 45.7066H10.5705V64.4906C10.5705 65.7024 11.5566 66.6886 12.7685 66.6886H13.7946C14.7664 66.6886 15.6105 66.0648 15.8959 65.1361L21.8684 45.7066H24.5665C25.8823 45.7066 26.9842 44.8198 27.3376 43.6165C38.1561 44.3642 51.7286 50.2709 57.4166 60.3767V62.066C57.4166 63.9401 58.9418 65.4653 60.8159 65.4653C62.6908 65.4653 64.216 63.9401 64.216 62.066V44.0349C70.0146 43.6349 74.6136 38.8018 74.6136 32.9036ZM12.3946 18.7836C12.3946 18.0837 12.964 17.5144 13.6639 17.5144H18.9812C19.6811 17.5144 20.2504 18.0837 20.2504 18.7836V20.0695H12.3946V18.7836ZM3.11631 39.4621C2.46387 39.4621 1.93315 38.9312 1.93315 38.2797V27.5002C1.93315 26.8478 2.46401 26.317 3.11631 26.317H5.1731V39.4621H3.11631ZM14.4176 64.6816V64.6823C14.3331 64.9571 14.083 65.1421 13.7946 65.1421H12.7685C12.409 65.1421 12.1169 64.8499 12.1169 64.4906V45.7066H20.2506L14.4176 64.6816ZM25.9211 42.8056C25.9211 43.5524 25.3134 44.1602 24.5666 44.1602C18.7397 44.1602 13.9042 44.1602 8.07422 44.1602C7.32744 44.1602 6.71968 43.5524 6.71968 42.8056C6.71968 37.8172 6.71968 27.9626 6.71968 22.9744C6.71968 22.2276 7.32744 21.6199 8.07422 21.6199H24.5666C25.3134 21.6199 25.9211 22.2276 25.9211 22.9744V42.8056ZM27.4712 42.0725V23.7052C37.9274 22.9713 50.873 17.5656 57.4168 8.29507V57.4817C50.8739 48.2121 37.9276 42.8055 27.4712 42.0725ZM62.6698 62.066C62.6698 63.0875 61.8385 63.9188 60.8161 63.9188C59.7945 63.9188 58.9632 63.0875 58.9632 62.066C58.967 -9.70361 58.9632 8.94077 58.9632 3.71084C58.9632 2.68926 59.7945 1.85796 60.8161 1.85796C61.8384 1.85796 62.6698 2.68926 62.6698 3.71084V62.066ZM64.2161 42.4968V23.2801C69.1626 23.6758 73.0671 27.8408 73.0671 32.9036C73.0671 37.9504 69.1626 42.1019 64.2161 42.4968Z" fill="#1A2E35"/>
<path d="M23.1041 23.928H9.53682C9.10937 23.928 8.76367 24.2738 8.76367 24.7011C8.76367 25.1284 9.10952 25.4743 9.53682 25.4743H23.1041C23.5315 25.4743 23.8772 25.1284 23.8772 24.7011C23.8772 24.2738 23.5313 23.928 23.1041 23.928Z" fill="#1A2E35"/>
<path d="M23.1041 28.0227H9.53682C9.10937 28.0227 8.76367 28.3686 8.76367 28.7958C8.76367 29.2231 9.10952 29.569 9.53682 29.569H23.1041C23.5315 29.569 23.8772 29.2231 23.8772 28.7958C23.8772 28.3686 23.5313 28.0227 23.1041 28.0227Z" fill="#1A2E35"/>
<path d="M23.1041 32.1167H9.53682C9.10937 32.1167 8.76367 32.4625 8.76367 32.8898C8.76367 33.3171 9.10952 33.663 9.53682 33.663H23.1041C23.5315 33.663 23.8772 33.3171 23.8772 32.8898C23.8772 32.4625 23.5313 32.1167 23.1041 32.1167Z" fill="#1A2E35"/>
<path d="M23.1041 36.2107H9.53682C9.10937 36.2107 8.76367 36.5565 8.76367 36.9838C8.76367 37.4113 9.10952 37.757 9.53682 37.757H23.1041C23.5315 37.757 23.8772 37.4111 23.8772 36.9838C23.8772 36.5565 23.5313 36.2107 23.1041 36.2107Z" fill="#1A2E35"/>
<path d="M23.1041 40.3049H9.53682C9.10937 40.3049 8.76367 40.6508 8.76367 41.0781C8.76367 41.5055 9.10952 41.8512 9.53682 41.8512H23.1041C23.5315 41.8512 23.8772 41.5054 23.8772 41.0781C23.8772 40.6506 23.5313 40.3049 23.1041 40.3049Z" fill="#1A2E35"/>
</svg>
